<?xml version="1.0" encoding="utf-8"?>
<!-- Generator: Adobe Illustrator 26.0.3, SVG Export Plug-In . SVG Version: 6.00 Build 0)  -->
<svg version="1.1" id="Layer_1" xmlns="http://www.w3.org/2000/svg" xmlns:xlink="http://www.w3.org/1999/xlink" x="0px" y="0px"
	 viewBox="0 0 256 256" style="enable-background:new 0 0 256 256;" xml:space="preserve">
<path d="M31.51,126.72c0-37.73,0-75.53,0-113.26c0-2.05,0.07-4.16,0-6.21c-0.13-2.91,1.06-4.43,4.1-4.16c1.78,0.13,3.57,0,5.29,0
	c58.09,0,116.24,0,174.32,0c10.04,0,9.38-1.59,9.38,9.45c0,77.32,0,154.56,0,231.88c0,0.86,0,1.78,0,2.64
	c0.2,6.21-0.73,5.95-5.68,5.95c-59.61-0.13-119.21-0.07-178.75-0.07c-0.86,0-1.78,0-2.64,0c-5.88-0.2-6.01-0.2-6.08-5.88
	c-0.13-9.45,0-18.9,0-28.35C31.51,188.11,31.51,157.38,31.51,126.72z M41.48,128.3c0,34.82,0,69.58,0,104.41c0,2.05,0.07,4.1,0,6.21
	c-0.07,2.84,1.06,4.43,4.16,4.36c1.78-0.07,3.57,0,5.29,0c51.28,0,102.62,0,153.9,0c10.64,0,10.11,0.66,10.11-10.04
	c0-69.91,0-139.76,0-209.68c0-11.56,0-9.98-10.11-9.98c-51.28-0.07-102.62,0-153.9,0c-1.45,0-2.97,0.13-4.43,0
	c-3.83-0.53-5.29,1.26-5.02,5.02c0.13,2.05,0,4.1,0,6.21C41.48,59.25,41.48,93.74,41.48,128.3z"/>
<path d="M106.84,185.6c2.58,2.05,4.69,3.3,6.21,5.02c4.3,4.96,2.25,11.37-4.03,12.95c-1.98,0.46-4.1,0.59-6.15,0.59
	c-9.71,0.07-19.49,0.13-29.21-0.07c-2.51-0.07-5.29-0.4-7.67-1.39c-3.96-1.72-5.35-5.68-4.3-10.51c0.79-3.7,3.44-5.29,6.94-5.68
	c0.59-0.07,1.19-0.2,1.78-0.13c9.05,1.98,14.6-3.04,20.09-9.32c10.24-11.76,21.08-23,31.52-34.63c7.8-8.72,6.34-6.67-0.99-13.28
	c-6.74-6.08-14.14-11.5-21.41-16.98c-4.3-3.24-9.32-4.89-14.74-5.29c-2.64-0.2-5.29-0.66-7.73-1.59c-3.9-1.45-5.68-5.15-5.02-9.25
	c0.66-3.7,3.04-6.21,7.34-6.28c12.69-0.2,25.38-0.13,38.06,0c3.3,0.07,6.54,1.26,7.53,5.02c0.86,3.37,0.13,6.41-2.71,8.72
	c-1.06,0.86-2.11,1.78-3.57,3.04c11.17,9.38,21.87,18.44,33.77,28.41c0.33-3.44,0.73-5.55,0.73-7.67c0.07-24.45,0-48.97,0-73.42
	c0-2.05,0-4.1,0-6.21c0-3.63,1.98-5.55,5.42-5.62c8.85-0.13,17.71-0.4,26.5,0.07c5.55,0.26,8.66,4.3,8.39,9.45
	c-0.2,4.82-3.04,7.34-8.79,8c-0.26,0-0.59,0-0.86,0c-12.56,1.06-12.56,1.06-12.56,13.35c0,34.49,0,68.99,0,103.48
	c0,2.05,0.07,4.1,0,6.21c-0.07,2.64,1.39,3.7,3.77,3.83c3.5,0.2,7.07,0.13,10.57,0.66c5.22,0.73,6.74,2.51,6.94,7.4
	c0.26,5.75-0.93,8.46-6.15,8.92c-9.05,0.86-18.17,0.79-27.29,0.46c-1.72-0.07-3.96-2.51-4.82-4.43c-1.06-2.31-1.06-5.15-1.12-7.73
	c-0.13-9.12-0.59-18.3,0.13-27.42c0.59-8-4.63-11.63-9.78-15.46c-0.79-0.59-3.44,0.13-4.36,1.12c-4.56,4.63-8.85,9.45-13.15,14.27
	C119.86,171.12,113.58,178.06,106.84,185.6z"/>
</svg>
